<mxfile host="app.diagrams.net" modified="2024-02-08T20:51:13.442Z" agent="Mozilla/5.0 (Macintosh; Intel Mac OS X 10_15_7) AppleWebKit/537.36 (KHTML, like Gecko) Chrome/121.0.0.0 Safari/537.36" version="23.1.0" etag="5NytCqfkCDM6W_l7g_Hf" type="github">
  <diagram name="ページ1" id="K_jCJ7zPSL3m0WJzfBn4">
    <mxGraphModel>
      <root>
        <mxCell id="0" />
        <mxCell id="1" parent="0" />
      </root>
    </mxGraphModel>
  </diagram>
</mxfile>
